<?xml version="1.0" encoding="UTF-8" standalone="no"?>
<!-- Created with Inkscape (http://www.inkscape.org/) -->

<svg
   width="421.7092"
   height="268.02533"
   viewBox="0 0 421.7092 268.02533"
   version="1.1"
   id="svg1"
   xml:space="preserve"
   inkscape:version="1.4.2 (ebf0e940d0, 2025-05-08)"
   sodipodi:docname="cloud_music.svg"
   inkscape:export-filename="cloud_music.png"
   inkscape:export-xdpi="96"
   inkscape:export-ydpi="96"
   xmlns:inkscape="http://www.inkscape.org/namespaces/inkscape"
   xmlns:sodipodi="http://sodipodi.sourceforge.net/DTD/sodipodi-0.dtd"
   xmlns="http://www.w3.org/2000/svg"
   xmlns:svg="http://www.w3.org/2000/svg"><sodipodi:namedview
     id="namedview1"
     pagecolor="#ffffff"
     bordercolor="#000000"
     borderopacity="0.25"
     inkscape:showpageshadow="2"
     inkscape:pageopacity="0.0"
     inkscape:pagecheckerboard="0"
     inkscape:deskcolor="#d1d1d1"
     inkscape:document-units="px"
     inkscape:zoom="0.4255955"
     inkscape:cx="1022.0973"
     inkscape:cy="419.41233"
     inkscape:window-width="1920"
     inkscape:window-height="991"
     inkscape:window-x="0"
     inkscape:window-y="0"
     inkscape:window-maximized="1"
     inkscape:current-layer="layer1"><inkscape:page
       x="0"
       y="0"
       width="421.7092"
       height="268.02533"
       id="page2"
       margin="0"
       bleed="0" /></sodipodi:namedview><defs
     id="defs1" /><g
     inkscape:label="Capa 1"
     inkscape:groupmode="layer"
     id="layer1"
     transform="translate(-453.47794,-413.79095)"><g
       id="g10"
       transform="matrix(0.81437901,0,0,0.81437901,167.32466,103.59735)"><path
         style="fill:#a769da"
         d="m 437.25703,708.47774 c -12.70337,-2.29799 -28.65944,-8.68004 -38.51607,-15.40552 l -3,-2.04699 15.5,0.20024 15.5,0.20024 -13.86694,0.54317 -13.86694,0.54317 7.86694,4.14769 c 10.34207,5.45264 20.58176,9.03076 31.08583,10.86252 11.86326,2.06878 104.28111,2.22058 104.28111,0.17129 0,-0.72517 -0.70189,-3.68201 -1.55975,-6.57075 -0.85786,-2.88873 -1.40872,-5.70535 -1.22412,-6.25914 0.1846,-0.55379 1.29278,2.62805 2.46264,7.07075 l 2.127,8.07764 -49.65288,-0.0902 c -37.06372,-0.0674 -51.55039,-0.4335 -57.13682,-1.44406 z m 242.80723,0.78465 c 19.4278,-0.15185 50.9278,-0.15177 70,1.7e-4 19.0722,0.15195 3.1767,0.27618 -35.3233,0.27609 -38.5,-10e-5 -54.1045,-0.12442 -34.6767,-0.27626 z m 107.6767,-0.94572 c 6.3544,-0.83819 18.4182,-4.35156 24.8489,-7.23683 14.7088,-6.5994 26.2058,-15.6934 35.5978,-28.15756 9.1208,-12.10427 14.533,-24.34486 18.0883,-40.91023 1.0033,-4.675 1.8559,-7.3202 1.8946,-5.87822 0.1138,4.2372 -4.4825,20.82008 -7.8056,28.16164 -9.5567,21.11383 -25.996,37.78122 -46.6983,47.34626 -8.4279,3.89392 -21.1446,7.44795 -25.8357,7.22049 l -3.09,-0.14983 z m -141.25562,-1.55462 c 0.2521,-0.6875 8.25854,-25.2042 17.79212,-54.48155 9.5335,-29.27736 17.5188,-53.04644 17.7451,-52.82019 0.2262,0.22625 -2.2924,8.65544 -5.597,18.73155 -3.3046,10.0761 -11.2461,34.40769 -17.64782,54.07019 -6.40171,19.6625 -11.88952,35.75 -12.19512,35.75 -0.3056,0 -0.34938,-0.5625 -0.0973,-1.25 z M 538.24096,691.03682 c 0,-1.87357 -0.8363,-1.99074 -16.25,-2.27656 l -16.25,-0.30134 16.75,-0.22344 16.75,-0.22343 v 2.5 c 0,1.375 -0.225,2.5 -0.5,2.5 -0.275,0 -0.5,-0.88885 -0.5,-1.97523 z m -111.00182,-0.27477 c 10e-4,-0.4125 8.66432,-0.66186 19.25182,-0.55414 19.37068,0.19709 17.09893,0.56177 -6.50182,1.04373 -7.0135,0.14323 -12.751,-0.0771 -12.75,-0.48959 z m 48.80501,-1.49647 c 5.66676,-0.17857 14.66676,-0.17784 20,0.002 5.33325,0.17945 0.69681,0.32556 -10.30319,0.32467 -11,-8.8e-4 -15.36356,-0.14771 -9.69681,-0.32628 z m 283.69681,-17.19889 c -3.0479,-1.24749 -5.1328,-4.02264 -7.4513,-9.91847 -5.1996,-13.22244 -15.058,-22.5418 -29.4515,-27.84121 -2.3764,-0.87497 -9.7134,-1.79323 -17.4696,-2.18642 -13.2868,-0.67355 -13.3877,-0.6969 -15.7451,-3.64322 -3.1385,-3.92256 -3.1264,-9.02439 0.031,-12.96532 l 2.4033,-3 15.3417,0.0906 c 13.8149,0.0816 16.0717,0.34821 22.6766,2.67941 16.4359,5.80099 29.9322,17.40135 37.1187,31.90422 5.3788,10.85496 6.1,16.04202 2.8847,20.74871 -1.2861,1.8826 -2.9264,3.61612 -3.6451,3.85227 -0.7188,0.23615 -0.1746,-0.7029 1.2093,-2.08679 4.9204,-4.92034 4.6535,-10.30995 -1.0776,-21.76582 -4.3456,-8.68636 -15.1445,-20.46697 -23.2129,-25.32315 -10.2618,-6.17637 -19.1845,-8.72476 -32.612,-9.31419 -17.9239,-0.7868 -22.5662,1.17854 -22.4682,9.51182 0.072,6.07314 4.1876,8.20295 15.8532,8.20295 4.9591,0 11.4012,0.50637 14.3158,1.12526 5.8219,1.23625 15.4719,5.76172 20.5596,9.64164 4.9157,3.74867 11.6229,13.23622 14.1674,20.04002 2.467,6.59662 3.9987,8.38058 8.5722,9.98364 1.65,0.57835 2.325,1.05855 1.5,1.06711 -0.825,0.009 -2.4,-0.35281 -3.5,-0.80303 z m -399.42707,-24.7113 c -3.28571,-6.87859 -7.12721,-19.41444 -6.99397,-22.82324 0.0434,-1.11106 1.11594,2.05379 2.38337,7.03298 1.79402,7.04797 6.15682,18.06218 8.00593,20.21155 0.12521,0.14554 7.15858,-3.39638 15.6297,-7.87094 8.47112,-4.47457 28.22704,-14.88444 43.90204,-23.13306 15.675,-8.24863 40.2,-21.19202 54.5,-28.76311 165.02517,-87.37198 157.20321,-83.30197 163.19428,-84.9152 2.27182,-0.61173 7.45316,-1.1464 11.51411,-1.18815 l 7.38353,-0.0759 19.95408,-23.11812 c 10.9747,-12.71496 23.8915,-27.53572 28.704,-32.93501 4.8125,-5.3993 8.75,-10.31061 8.75,-10.91403 0,-2.14941 -9.4758,-14.32687 -17.0144,-21.86556 -12.0738,-12.07373 -31.1228,-23.69157 -48.09991,-29.33565 -12.15247,-4.04012 -21.02914,-5.15055 -40.88569,-5.1146 -17.82075,0.0323 -20.43336,0.26926 -30.3385,2.75204 -13.54252,3.39451 -23.64218,7.40915 -35.02962,13.92435 -30.62268,17.52045 -53.36393,48.42633 -60.5496,82.28831 -1.811,8.5342 -2.57987,10.41979 -5.24542,12.86391 -3.41931,3.13525 -1.90367,3.08774 -19.83686,0.62181 -37.29917,-5.12888 -77.42588,18.71933 -96.77283,57.51428 -3.6605,7.34013 -7.80934,20.27346 -9.75888,30.42173 -1.26717,6.59618 -1.39424,6.86551 -0.98052,2.07827 0.81696,-9.45326 4.39232,-21.0788 9.99517,-32.5 15.67629,-31.95549 41.53267,-52.06778 74.7637,-58.15467 9.15169,-1.6763 17.15466,-1.38214 35.84227,1.31742 5.75705,0.83165 8.5044,-2.3619 10.46336,-12.16275 7.6187,-38.11703 34.23159,-72.18981 69.94773,-89.55486 23.8771,-11.60896 53.22953,-15.73242 80.79429,-11.35006 31.80701,5.05681 61.29591,23.35297 80.09091,49.69189 l 4.6903,6.57285 -17.7877,20.36529 c -9.7833,11.20091 -23.137,26.53245 -29.6749,34.07009 l -11.88704,13.7048 h -7.68143 c -4.22478,0 -9.9006,0.66738 -12.61293,1.48308 -2.71232,0.81569 -21.5815,10.30819 -41.9315,21.09444 -44.96999,23.83575 -172.67263,91.25739 -203,107.17549 -12.1,6.351 -24.0951,12.79946 -26.65579,14.32991 l -4.65578,2.78265 z m 507.69217,-40.84334 c -0.6535,-18.39889 -2.0964,-25.75315 -7.7352,-39.42742 -10.522,-25.51613 -34.7589,-46.46282 -62.0299,-53.60914 -7.008,-1.83644 -23.7364,-2.46224 -33,-1.2345 -4.2623,0.5649 -4.8249,0.50414 -2.5,-0.26998 5.586,-1.85996 21.5064,-2.20782 30,-0.65549 28.3865,5.18806 55.482,26.53108 67.594,53.24358 5.6506,12.46214 8.0238,23.46754 8.6155,39.95295 0.2961,8.25 0.3406,15.9 0.099,17 -0.2418,1.1 -0.7112,-5.65 -1.0433,-15 z m -516.12035,9.37523 c -0.35461,-3.39274 -0.57594,-10.4901 -0.49183,-15.77192 0.13222,-8.30386 0.25605,-7.50596 0.91514,5.89669 0.41922,8.525 0.64054,15.62236 0.49183,15.77192 -0.14872,0.14955 -0.56053,-2.50396 -0.91514,-5.89669 z m 330.71165,-19.37523 c 0.2182,-1.1 2.5189,-8.75 5.1127,-17 2.5938,-8.25 5.3519,-17.7 6.1292,-21 1.2442,-5.28225 1.3585,-5.46168 0.9557,-1.5 -0.2517,2.475 -2.4679,11.025 -4.9249,19 -4.2979,13.94968 -8.0988,24.66368 -7.2727,20.5 z m 12.2397,-50.35343 c -0.3642,-3.21939 -1.4818,-7.46099 -2.4835,-9.42578 l -1.8213,-3.57235 12.1043,-14.45151 c 28.7816,-34.36262 33.1226,-39.44523 33.4432,-39.15711 0.8619,0.77446 2.2276,9.31692 3.1256,19.55 0.8329,9.49215 1.3369,11.60554 3.2604,13.67225 2.0061,2.15546 2.8665,2.37755 7.2752,1.87791 2.75,-0.31166 6.125,-0.81452 7.5,-1.11747 1.4468,-0.31877 1.0256,0.055 -1,0.88726 -5.7928,2.38013 -11.3173,2.00024 -14.3009,-0.98337 -2.6302,-2.63026 -2.7485,-3.1729 -4.2331,-19.4264 -0.3265,-3.575 -0.9074,-8.00885 -1.2908,-9.85301 l -0.6971,-3.353 -17.989,21.30948 c -9.894,11.72022 -19.7219,23.47542 -21.8398,26.12266 l -3.8507,4.81318 1.5917,3.97808 c 1.5911,3.97652 3.3369,14.98261 2.3765,14.98261 -0.2796,0 -0.8065,-2.63404 -1.1707,-5.85343 z"
         id="path7" /><path
         style="fill:#8e5bb9"
         d="m 443.24096,709.04729 c 1.19055,-0.91547 0.64057,-1.08586 -2.66588,-0.82593 -2.30753,0.1814 -3.917,-0.0752 -3.60795,-0.57525 0.30686,-0.49652 -0.83223,-0.69872 -2.53131,-0.44935 -1.83434,0.26922 -2.84721,0.0618 -2.49342,-0.51064 0.3508,-0.56761 -0.48092,-0.75822 -2.02255,-0.46352 -1.4401,0.2753 -2.41009,0.16354 -2.15554,-0.24833 0.63366,-1.02529 -4.34632,-2.18966 -5.72385,-1.33831 -0.71789,0.44369 -0.82277,0.22276 -0.29764,-0.62693 0.6041,-0.97745 0.26064,-1.16813 -1.34687,-0.74776 -1.18676,0.31034 -1.93266,0.20006 -1.65756,-0.24507 0.65869,-1.06578 -5.42447,-3.16728 -6.76681,-2.33767 -0.65074,0.40218 -0.73344,0.1471 -0.22108,-0.68191 0.59931,-0.96971 0.35895,-1.14808 -0.89743,-0.66596 -1.15642,0.44376 -1.48251,0.28071 -1,-0.5 0.4949,-0.80077 0.13437,-0.9353 -1.16758,-0.4357 -1.03596,0.39754 -1.55431,0.39354 -1.15189,-0.009 0.40243,-0.40243 -1.41129,-1.99354 -4.03048,-3.5358 l -4.76216,-2.80401 14,-0.13536 c 8.65567,-0.0837 12.85479,-0.42678 11,-0.89874 l -3,-0.76337 3.25,-0.11832 c 1.7875,-0.0651 3.2495,0.21919 3.24889,0.63169 -6.1e-4,0.4125 8.66189,0.56838 19.25,0.3464 10.58811,-0.22199 17.67611,-0.67599 15.75111,-1.0089 -1.925,-0.33292 7.075,-0.50544 20,-0.3834 15.67926,0.14805 22.66801,-0.0939 21,-0.72701 -2.072,-0.78645 -1.81521,-0.8676 1.5,-0.474 2.2,0.26119 10.6375,0.47985 18.75,0.4859 14.07966,0.0105 14.75,0.1019 14.75,2.01101 0,1.1 0.3876,2 0.86133,2 0.47373,0 0.63348,1.19188 0.35501,2.64862 -0.32552,1.70286 -0.13076,2.41653 0.54541,1.99862 0.66703,-0.41224 0.84533,0.13927 0.48747,1.50775 -0.34584,1.3225 -0.17211,1.91539 0.4488,1.53164 0.62756,-0.38785 0.8226,0.37026 0.51253,1.99226 -0.30628,1.6022 -0.11223,2.37838 0.5,2 0.6056,-0.37428 0.81418,0.35651 0.52842,1.85137 l -0.47212,2.46974 h -48.30164 c -26.5659,0 -49.12594,0.26745 -50.13342,0.59433 -1.55161,0.50343 -1.60236,0.41791 -0.33179,-0.55909 z m 271.5,-0.0352 c -38.5,-0.28623 -69.38936,-0.62832 -68.64301,-0.76021 0.78219,-0.13822 1.10473,-0.89716 0.76145,-1.79173 -0.38609,-1.00614 -0.19247,-1.30283 0.55054,-0.84363 0.77953,0.48178 0.9656,0.0182 0.5818,-1.44944 -0.36157,-1.38267 -0.18197,-1.92148 0.5,-1.5 0.68197,0.42148 0.86158,-0.11733 0.5,-1.5 -0.36157,-1.38267 -0.18197,-1.92148 0.5,-1.5 0.68197,0.42148 0.86158,-0.11733 0.5,-1.5 -0.36157,-1.38267 -0.18197,-1.92148 0.5,-1.5 0.68197,0.42148 0.86158,-0.11733 0.5,-1.5 -0.36157,-1.38267 -0.18197,-1.92148 0.5,-1.5 0.68197,0.42148 0.86158,-0.11733 0.5,-1.5 -0.36157,-1.38267 -0.18197,-1.92148 0.5,-1.5 0.68197,0.42148 0.86158,-0.11733 0.5,-1.5 -0.31034,-1.18676 -0.25348,-1.96568 0.12636,-1.73092 1.05718,0.65337 11.38446,-32.19173 10.54766,-33.54581 -0.4933,-0.79817 -0.3038,-0.92153 0.5782,-0.3764 0.9775,0.6041 1.1682,0.26064 0.7478,-1.34687 -0.3616,-1.38267 -0.182,-1.92148 0.5,-1.5 0.682,0.42148 0.8616,-0.11733 0.5,-1.5 -0.3616,-1.38267 -0.182,-1.92148 0.5,-1.5 0.682,0.42148 0.8616,-0.11733 0.5,-1.5 -0.3616,-1.38267 -0.182,-1.92148 0.5,-1.5 0.682,0.42148 0.8616,-0.11733 0.5,-1.5 -0.3616,-1.38267 -0.182,-1.92148 0.5,-1.5 0.6884,0.42549 0.856,-0.13864 0.4745,-1.59753 -0.3244,-1.24041 -0.3159,-1.98144 0.019,-1.64673 0.8503,0.85037 6.392,-16.61372 5.7788,-18.21161 -0.275,-0.71665 -0.1031,-1.05773 0.3819,-0.75797 1.1205,0.69255 2.3863,-4.16107 1.4713,-5.64165 -0.4437,-0.71789 -0.2228,-0.82277 0.6269,-0.29764 0.9775,0.6041 1.1682,0.26064 0.7478,-1.34687 -0.3616,-1.38267 -0.182,-1.92148 0.5,-1.5 0.682,0.42148 0.8616,-0.11733 0.5,-1.5 -0.3616,-1.38267 -0.182,-1.92148 0.5,-1.5 0.682,0.42148 0.8616,-0.11733 0.5,-1.5 -0.3616,-1.38267 -0.182,-1.92148 0.5,-1.5 0.682,0.42148 0.8616,-0.11733 0.5,-1.5 -0.3616,-1.38267 -0.182,-1.92148 0.5,-1.5 0.6819,0.42142 0.8616,-0.11703 0.5003,-1.49862 -0.3101,-1.186 -0.2492,-2.15637 0.1354,-2.15637 1.2116,0 4.4025,-10.72335 3.5847,-12.04656 -0.5406,-0.8748 -0.3773,-1.01346 0.5318,-0.45158 0.9775,0.6041 1.1682,0.26064 0.7478,-1.34687 -0.3616,-1.38267 -0.182,-1.92148 0.5,-1.5 0.682,0.42148 0.8616,-0.11733 0.5,-1.5 -0.3104,-1.18676 -0.2083,-1.93772 0.2269,-1.66879 1.0563,0.65286 3.265,-8.28454 2.3951,-9.692 -0.3927,-0.63536 -0.2267,-0.82195 0.3913,-0.43998 1.2936,0.79949 2.7154,-4.76939 1.6555,-6.48433 -0.4858,-0.78607 -0.2956,-0.91128 0.5709,-0.37577 0.9779,0.60436 1.1756,0.15511 0.7989,-1.81523 -0.31,-1.62172 -0.1149,-2.38009 0.5124,-1.99237 0.6634,0.40998 0.7884,-1.06703 0.3623,-4.28026 -0.4437,-3.34655 -0.3397,-4.42941 0.3274,-3.40626 0.7242,1.11089 0.9779,0.46237 0.9779,-2.5 0,-3.07966 -0.2417,-3.65487 -1.0502,-2.5 -0.8198,1.17095 -0.9098,1.00149 -0.4102,-0.77247 0.7982,-2.83389 -0.354,-8.44134 -1.5789,-7.68432 -0.499,0.30837 -0.6109,-0.21153 -0.2487,-1.15532 0.3764,-0.98091 0.2517,-1.46458 -0.2911,-1.12911 -0.5223,0.32278 -0.8969,-0.61589 -0.8326,-2.08595 0.064,-1.47006 0.6315,-2.67283 1.2604,-2.67283 1.5554,0 4.2863,-4.04341 3.3966,-5.02896 -0.3931,-0.43543 -0.2014,-0.49841 0.4259,-0.13995 1.1541,0.65943 5.0141,-4.13097 4.557,-5.65542 -0.1359,-0.45338 0.1796,-0.56059 0.7012,-0.23824 0.9065,0.56028 5.8578,-5.40033 5.3473,-6.43743 -0.1354,-0.275 0.1631,-0.5 0.6633,-0.5 1.4305,0 5.1063,-5.14227 4.3078,-6.02641 -0.3944,-0.43683 -0.2263,-0.51476 0.3738,-0.17318 1.1349,0.6461 6.0757,-5.1785 5.6195,-6.62474 -0.143,-0.45338 0.1519,-0.56974 0.6553,-0.25859 0.9515,0.58805 4.7473,-4.34953 4.3566,-5.66708 -0.1223,-0.4125 0.1559,-0.6375 0.6182,-0.5 0.9354,0.27817 10.1869,-10.16739 9.8638,-11.13681 -0.1124,-0.33725 0.2456,-0.73968 0.7956,-0.89428 0.55,-0.1546 1.1431,0.86553 1.3181,2.26696 0.1749,1.40142 0.6332,2.35326 1.0184,2.1152 0.3852,-0.23806 0.5266,1.38857 0.3143,3.61474 -0.2123,2.22617 0,3.8048 0.4816,3.50806 0.4772,-0.29673 0.7788,2.68151 0.6702,6.61831 -0.1442,5.22935 0.044,6.48427 0.6994,4.65782 0.6719,-1.8734 0.7638,-1.36394 0.3664,2.03268 -0.4646,3.97081 -0.1935,4.86952 2.187,7.25 1.9626,1.9626 3.721,2.71353 6.331,2.70367 4.5883,-0.0173 8.2354,-0.98024 7.601,-2.00678 -0.2696,-0.43618 0.4105,-0.55753 1.5112,-0.26968 1.1637,0.30432 2.0014,0.0313 2.0014,-0.65228 0,-0.6466 0.4353,-0.90663 0.9673,-0.57784 1.2342,0.76279 11.1273,-0.51761 10.5994,-1.37181 -0.2173,-0.35168 4.6287,-0.2919 10.7691,0.13286 6.1403,0.42475 11.7501,0.54949 12.4661,0.27718 0.7161,-0.2723 1.0575,-0.0996 0.7588,0.38381 -0.6867,1.11116 6.0805,2.43796 7.6108,1.49219 0.7474,-0.46194 0.8595,-0.2531 0.3266,0.60902 -0.6041,0.97745 -0.2606,1.16813 1.3469,0.74776 1.1868,-0.31034 1.9056,-0.15623 1.5974,0.34248 -0.5133,0.83054 1.1638,1.29001 4.2968,1.17718 0.6816,-0.0246 1.0275,0.29805 0.7686,0.71687 -0.5149,0.83316 9.2299,5.44766 11.2314,5.31848 0.6816,-0.044 0.9926,0.31921 0.691,0.80711 -0.5077,0.82153 0.9558,1.31747 2.8941,0.98074 0.4534,-0.0788 0.5394,0.31796 0.191,0.88158 -0.5792,0.93726 0.7668,1.47319 2.809,1.11842 0.4534,-0.0788 0.5685,0.2708 0.2558,0.7768 -0.572,0.92541 2.2075,2.60569 3.7442,2.26354 0.4534,-0.10094 0.5836,0.20605 0.2893,0.68222 -0.5358,0.86698 5.3493,5.82037 6.4946,5.46634 0.7483,-0.23132 6.1309,5.29666 5.9732,6.13457 -0.2442,1.29758 3.1893,5.5336 4.0528,4.99997 0.5034,-0.31115 0.8509,-0.19479 0.7722,0.25859 -0.3701,2.13047 0.1999,3.37668 1.2481,2.72884 0.6354,-0.39267 0.8858,-0.27874 0.5569,0.25336 -0.8102,1.31104 2.7233,6.55418 3.7742,5.60019 0.4593,-0.41693 0.5694,-0.28949 0.2447,0.2832 -0.8052,1.42037 4.7206,12.65497 5.7605,11.71158 0.4564,-0.41406 0.5198,-0.21248 0.1409,0.44795 -0.7432,1.29536 2.7061,12.62806 3.5781,11.75603 0.2894,-0.28932 0.2953,0.68141 0.013,2.15719 -0.3153,1.64905 -0.1273,2.44491 0.4876,2.06488 0.6122,-0.37838 0.8062,0.3978 0.5,2 -0.2771,1.44954 -0.093,2.36637 0.4128,2.05385 0.5159,-0.31886 0.7454,1.19679 0.5274,3.48307 -0.2123,2.22617 0,3.80686 0.4816,3.51265 0.4772,-0.29422 0.8676,6.35394 0.8676,14.77368 0,8.49831 -0.3894,15.06755 -0.8753,14.76675 -0.4815,-0.29802 -0.688,1.063 -0.459,3.02448 0.2375,2.03482 0.019,3.32074 -0.509,2.99444 -0.5244,-0.32408 -0.7289,0.76679 -0.472,2.51733 0.2692,1.83434 0.062,2.84721 -0.5106,2.49342 -0.5702,-0.35239 -0.7545,0.50044 -0.4511,2.08743 0.2821,1.47578 0.2583,2.42868 -0.053,2.11757 -0.8452,-0.84522 -5.178,12.66086 -4.4643,13.91575 0.3381,0.59438 0.2446,0.74518 -0.2078,0.33512 -0.8019,-0.72682 -4.6905,6.5489 -4.7843,8.95158 -0.026,0.66331 -0.4986,0.92699 -1.0504,0.58596 -0.604,-0.37327 -0.7412,0.0629 -0.3448,1.09592 0.3911,1.01928 0.2571,1.46793 -0.3301,1.10503 -0.9467,-0.58515 -1.45,0.89337 -1.0236,3.00708 0.111,0.55 -0.127,0.67122 -0.5288,0.26939 -0.8836,-0.88351 -6.4735,6.36115 -5.7773,7.4875 0.2694,0.43597 0.1189,0.69347 -0.3345,0.57223 -1.0274,-0.27472 -12.7881,11.39293 -12.52,12.42088 0.1077,0.4125 -0.1418,0.67856 -0.5543,0.59124 -1.4903,-0.31546 -4.2252,1.38986 -3.6699,2.28832 0.3127,0.506 0.1976,0.85555 -0.2558,0.7768 -2.0422,-0.35477 -3.3882,0.18116 -2.809,1.11842 0.3484,0.56362 0.2624,0.96033 -0.191,0.88158 -2.1304,-0.3701 -3.3767,0.19991 -2.7288,1.24815 0.3924,0.63498 0.2953,0.89603 -0.2159,0.58012 -1.1,-0.67987 -14.6189,5.69269 -13.8045,6.50717 0.307,0.30701 -0.034,0.49488 -0.7584,0.41748 -2.2644,-0.242 -11.8351,2.50192 -11.3672,3.25897 0.2447,0.39592 -0.9453,0.51583 -2.6444,0.26646 -1.699,-0.24937 -2.8381,-0.0472 -2.5313,0.44935 0.3106,0.50245 -1.2368,0.73159 -3.4896,0.51675 -2.8052,-0.26752 -3.8356,-0.043 -3.3569,0.7316 0.3799,0.61467 0.3267,1.00968 -0.1183,0.8778 -0.4447,-0.13189 -32.3088,-0.47398 -70.8088,-0.76021 z m 49.5,-36.96862 c 0,-0.53273 0.6208,-0.73038 1.3796,-0.43921 1.7135,0.65753 5.8882,-4.45183 5.169,-6.32617 -0.2891,-0.75343 -0.081,-1.09495 0.4629,-0.75892 0.5579,0.34481 0.9885,-0.56216 0.9885,-2.08204 0,-4.06973 -2.1618,-10.44308 -3.303,-9.73778 -0.5533,0.34196 -0.704,0.13313 -0.3349,-0.46407 0.9068,-1.46728 -2.434,-8.29681 -3.6814,-7.52585 -0.5602,0.34623 -0.6749,0.10226 -0.2642,-0.56217 1.7557,-2.84082 -16.8423,-22.14873 -19.737,-20.4903 -0.6487,0.37168 -0.8449,0.3065 -0.4359,-0.14485 1.0299,-1.13653 -2.9787,-3.78178 -4.3999,-2.90344 -0.7663,0.47364 -0.8784,0.26851 -0.3342,-0.61201 0.5994,-0.96971 0.359,-1.14808 -0.8974,-0.66596 -0.9438,0.36216 -1.4767,0.2713 -1.1842,-0.20191 0.6576,-1.06406 -7.8074,-4.387 -11.5131,-4.51951 -1.495,-0.0534 -2.5348,-0.39605 -2.3106,-0.76131 0.667,-1.08656 -14.056,-2.11546 -23.3161,-1.62942 -8.0616,0.42312 -8.751,0.63563 -10.9409,3.37256 -3.1003,3.87461 -3.0758,8.99736 0.062,12.92098 l 2.399,3 h 11.9987 c 6.6971,0 11.7581,0.39075 11.454,0.88435 -0.2996,0.48639 0.8455,0.68031 2.5445,0.43094 1.6991,-0.24937 2.9049,-0.15514 2.6796,0.2094 -0.5746,0.92974 6.6279,3.02375 7.8348,2.27784 0.5995,-0.37051 0.6669,-0.0895 0.171,0.7129 -0.5994,0.96971 -0.359,1.14808 0.8974,0.66596 1.1564,-0.44376 1.4825,-0.28071 1,0.5 -0.4949,0.80077 -0.1344,0.9353 1.1676,0.4357 1.0359,-0.39754 1.5561,-0.39539 1.156,0.005 -0.9603,0.9603 4.3813,4.43879 5.6306,3.66668 0.5318,-0.32866 0.6884,-0.1469 0.348,0.40392 -0.7041,1.13913 4.5857,6.60955 5.6292,5.82153 0.3744,-0.2827 0.4787,-0.23704 0.2319,0.10147 -0.2468,0.33851 1.1032,2.92 3,5.73665 1.8968,2.81665 3.4488,5.71625 3.4488,6.44355 0,0.74491 0.5042,1.01078 1.1545,0.60884 0.699,-0.43199 0.8837,-0.27535 0.4682,0.39696 -0.925,1.49665 1.6036,7.25519 4.202,9.56981 1.1713,1.04331 2.804,1.60146 3.69,1.26146 0.9193,-0.35277 1.3316,-0.19313 0.9782,0.37871 -0.336,0.5437 0.091,0.98855 0.9481,0.98855 0.8574,0 1.559,-0.43588 1.559,-0.96862 z m -67.25,-58.69366 c 0.6875,-0.27741 1.8125,-0.27741 2.5,0 0.6875,0.27741 0.125,0.50439 -1.25,0.50439 -1.375,0 -1.9375,-0.22698 -1.25,-0.50439 z m 147.25,-72.66341 c 0,-0.17912 -1.2375,-1.41662 -2.75,-2.75 l -2.75,-2.42431 2.4243,2.75 c 2.2659,2.57029 3.0757,3.20859 3.0757,2.42431 z M 362.55523,652.3126 c 0.89009,-1.44019 -0.2459,-4.4608 -1.4076,-3.74283 -0.48607,0.30041 -0.58744,-0.226 -0.22528,-1.16979 0.48212,-1.25638 0.30375,-1.49674 -0.66596,-0.89743 -0.75459,0.46637 -1.08232,0.42679 -0.7617,-0.092 0.59183,-0.9576 -3.67439,-14.63596 -4.358,-13.97258 -0.21765,0.21122 -0.45669,-1.69352 -0.53121,-4.23276 -0.0745,-2.53923 -0.52767,-4.74751 -1.00702,-4.9073 -0.47935,-0.15978 -0.7314,-2.42696 -0.56012,-5.03817 0.17128,-2.61121 -0.0506,-4.22813 -0.49298,-3.59315 -0.44242,0.63498 -0.8044,-4.83455 -0.8044,-12.15451 0,-7.31996 0.39042,-13.06773 0.86759,-12.77281 0.47718,0.29491 0.6939,-1.28521 0.4816,-3.51138 -0.21484,-2.25281 0.0143,-3.80018 0.51675,-3.48964 0.49652,0.30686 0.69872,-0.83223 0.44935,-2.53131 -0.24937,-1.69908 -0.13417,-2.89194 0.256,-2.6508 0.99201,0.6131 2.18158,-6.32589 1.32271,-7.71558 -0.39479,-0.63878 -0.26194,-0.86489 0.30301,-0.51574 1.2531,0.77446 3.65703,-6.89903 2.68897,-8.58331 -0.38865,-0.67619 -0.32699,-0.88444 0.13701,-0.46278 1.06781,0.97036 3.69293,-5.10827 2.81767,-6.52447 -0.40948,-0.66256 -0.16001,-0.74857 0.67477,-0.23264 0.96971,0.59931 1.14808,0.35895 0.66596,-0.89743 -0.44376,-1.15642 -0.28071,-1.48251 0.5,-1 0.80077,0.4949 0.9353,0.13437 0.4357,-1.16758 -0.39754,-1.03596 -0.40063,-1.5614 -0.007,-1.16764 1.00923,1.00923 4.57994,-5.16019 3.75713,-6.49152 -0.4058,-0.65659 -0.21452,-0.80895 0.47814,-0.38086 1.04824,0.64784 1.61825,-0.59837 1.24815,-2.72884 -0.0788,-0.45338 0.31796,-0.53932 0.88158,-0.19098 0.93726,0.57925 1.47319,-0.76678 1.11842,-2.80902 -0.0788,-0.45338 0.2708,-0.56847 0.7768,-0.25574 0.98738,0.61023 2.60535,-2.26614 2.20499,-3.91993 -0.13316,-0.55 0.0925,-0.66536 0.50154,-0.25636 0.82072,0.82071 4.06667,-3.25221 3.64049,-4.56797 -0.14686,-0.45338 0.11846,-0.58609 0.5896,-0.29492 0.95569,0.59065 10.10593,-8.30887 10.15911,-9.88075 0.0186,-0.55 0.40079,-1 0.84929,-1 1.72085,0 14.10922,-9.24593 13.4156,-10.01259 -0.40208,-0.44444 -0.22072,-0.51659 0.40303,-0.16035 1.25626,0.71748 12.68156,-4.67807 11.79126,-5.56837 -0.30727,-0.30728 0.0338,-0.5328 0.75798,-0.50116 3.15903,0.13804 4.89381,-0.32369 4.37431,-1.16427 -0.30822,-0.49871 0.41059,-0.65282 1.59735,-0.34248 1.38267,0.36158 1.92148,0.18197 1.5,-0.5 -0.42148,-0.68197 0.11733,-0.86157 1.5,-0.5 1.3225,0.34584 1.91539,0.17211 1.53164,-0.4488 -0.38785,-0.62756 0.37026,-0.8226 1.99226,-0.51253 1.54163,0.2947 2.37335,0.10409 2.02255,-0.46352 -0.35379,-0.57243 0.65908,-0.77986 2.49342,-0.51064 1.69908,0.24937 2.84871,0.0555 2.55474,-0.43094 -0.29398,-0.48639 3.3546,-0.99476 8.10795,-1.1297 4.75335,-0.13494 10.21745,-0.46182 12.14245,-0.72641 2.75157,-0.37819 3.07232,-0.27454 1.5,0.48474 -1.51655,0.73234 -0.75368,0.90793 3.15596,0.72641 2.83578,-0.13166 4.98221,0.0407 4.76986,0.38299 -0.4117,0.66363 5.54351,1.84831 9.3832,1.86661 1.26996,0.006 2.03408,-0.43384 1.69806,-0.97754 -0.33603,-0.5437 -0.003,-0.75543 0.73898,-0.47052 1.89238,0.72617 6.15581,-4.05128 5.39191,-6.04199 -0.33828,-0.88155 -0.22062,-1.35904 0.26147,-1.06109 1.10495,0.6829 2.4734,-8.02556 1.50688,-9.58942 -0.47233,-0.76426 -0.27389,-0.88462 0.58416,-0.35431 0.98135,0.6065 1.17392,0.14621 0.78656,-1.88011 -0.28211,-1.47578 -0.2561,-2.42641 0.0578,-2.11251 0.83479,0.83478 3.16992,-7.66932 2.45253,-8.93164 -0.33441,-0.58842 -0.22003,-0.71653 0.25417,-0.28467 1.10911,1.01007 4.70291,-8.05264 3.81086,-9.6101 -0.37017,-0.6463 -0.29749,-0.83419 0.16151,-0.41753 1.06885,0.97024 6.66051,-9.16635 5.81294,-10.53773 -0.34972,-0.56587 -0.18891,-0.75262 0.35736,-0.415 1.22549,0.75739 5.56087,-6.69661 4.54679,-7.81749 -0.40204,-0.4444 -0.20692,-0.50804 0.4336,-0.14143 1.17925,0.67494 6.07201,-6.08159 5.55442,-7.67024 -0.14771,-0.45338 0.14252,-0.57027 0.64496,-0.25974 0.50243,0.31052 2.11148,-1.00603 3.57566,-2.92567 1.46419,-1.91964 2.32598,-3.49026 1.91509,-3.49026 -0.41088,0 0.76252,-1.55749 2.60757,-3.46109 1.84504,-1.9036 3.63251,-3.28934 3.97215,-3.07943 0.98196,0.60689 11.05079,-8.14092 10.26953,-8.92218 -0.38718,-0.38718 -0.25397,-0.59503 0.29603,-0.46187 1.81487,0.43936 4.50094,-1.26326 3.83393,-2.43021 -0.36002,-0.62987 -0.29099,-0.81627 0.15341,-0.41423 1.12088,1.01408 8.57488,-3.3213 7.81749,-4.54679 -0.33762,-0.54627 -0.16466,-0.7156 0.38436,-0.37629 1.32432,0.81847 16.4494,-6.81385 15.52716,-7.83522 -0.39399,-0.43634 -0.23393,-0.51913 0.35569,-0.18398 1.22818,0.6981 15.7191,-3.66424 14.89834,-4.485 -0.29678,-0.29678 0.66785,-0.30878 2.14363,-0.0267 1.64905,0.31524 2.44491,0.12731 2.06488,-0.48759 -0.37838,-0.61224 0.3978,-0.80628 2,-0.5 1.54163,0.2947 2.37335,0.10409 2.02255,-0.46352 -0.35379,-0.57243 0.65908,-0.77986 2.49342,-0.51064 1.69908,0.24937 2.84428,0.0555 2.54488,-0.43094 -0.30538,-0.49613 7.64388,-1.02355 18.10795,-1.20144 10.25877,-0.17439 19.55231,-0.54137 20.65231,-0.8155 1.66666,-0.41535 1.75,-0.31099 0.5,0.62618 -1.17424,0.88037 -0.59529,1.05347 2.66588,0.7971 2.29124,-0.18012 3.91732,0.0747 3.61352,0.56625 -0.3038,0.49155 1.05249,0.70638 3.01397,0.47739 1.96149,-0.22899 3.37684,-0.10974 3.14523,0.26501 -0.60802,0.98381 6.36272,2.13144 7.82841,1.28884 0.67814,-0.38986 0.89139,-0.33258 0.47387,0.12728 -0.91997,1.01328 6.22483,3.65925 8.06106,2.9853 0.71606,-0.26282 1.02701,-0.033 0.69098,0.51069 -0.55731,0.90176 1.03735,1.37456 4.2463,1.25899 0.6816,-0.0246 1.0252,0.30176 0.7635,0.72513 -0.4909,0.79431 9.0243,5.29794 11.2473,5.32343 0.6875,0.008 1.0432,0.22117 0.7904,0.47396 -0.6049,0.60489 11.6048,8.51486 13.1656,8.52925 0.6633,0.006 0.9882,0.36355 0.722,0.79428 -0.5161,0.83504 3.5615,3.45303 4.822,3.09596 0.4125,-0.11685 0.6576,0.12505 0.5446,0.53755 -0.3211,1.17205 13.5599,14.79068 14.6944,14.41667 0.556,-0.18334 0.6915,-0.0138 0.3009,0.37674 -0.3905,0.39055 1.297,3.52269 3.75,6.96033 2.4531,3.43763 4.4601,6.72107 4.4601,7.29653 0,0.57545 -1.0703,2.31831 -2.3785,3.873 -1.3082,1.5547 -2.5457,3.27673 -2.75,3.82673 -0.2043,0.55 -0.6664,0.90169 -1.0269,0.78154 -0.8928,-0.29761 -6.4058,7.01148 -6.0663,8.04279 0.1492,0.45338 -0.1672,0.55337 -0.703,0.22219 -1.0322,-0.63794 -5.5437,4.80982 -5.6208,6.78726 -0.025,0.64142 -0.5449,1.06791 -1.1553,0.94776 -1.4619,-0.28773 -6.4184,6.24355 -5.506,7.25536 0.3888,0.43107 0.1787,0.48131 -0.4667,0.11167 -1.1547,-0.66131 -5.8218,4.82823 -5.8249,6.85143 -9e-4,0.55 -0.4985,1 -1.1058,1 -1.6065,0 -6.47,6.07861 -5.6179,7.02154 0.3971,0.43951 0.2097,0.50635 -0.4166,0.14853 -1.3448,-0.76826 -6.6041,5.71791 -5.5681,6.86683 0.3888,0.43107 0.1838,0.48446 -0.4554,0.11867 -1.118,-0.6398 -6.9827,5.7287 -7.2238,7.84443 -0.063,0.55 -0.5553,1 -1.0947,1 -1.2165,0 -4.13955,4.04644 -3.4332,4.75272 0.2834,0.28349 -0.85918,0.2301 -2.53919,-0.11864 -3.93899,-0.81767 -15.20058,-0.19171 -14.58119,0.81049 0.26055,0.42158 -0.70453,0.54128 -2.14463,0.26598 -1.68009,-0.32117 -2.38544,-0.12365 -1.96835,0.5512 0.41224,0.66703 -0.13927,0.84533 -1.50775,0.48747 -1.60751,-0.42037 -1.95097,-0.22969 -1.34687,0.74776 0.52042,0.84207 0.41992,1.07041 -0.28059,0.63747 -1.33526,-0.82523 -12.30994,4.40704 -11.6121,5.53617 0.27413,0.44356 -0.27377,0.51015 -1.21756,0.14799 -1.15641,-0.44376 -1.4825,-0.28072 -1,0.5 0.48251,0.78071 0.15642,0.94376 -1,0.5 -1.15641,-0.44376 -1.4825,-0.28072 -1,0.5 0.48251,0.78071 0.15642,0.94376 -1,0.5 -1.25638,-0.48212 -1.49674,-0.30375 -0.89743,0.66596 0.5229,0.84606 0.43044,1.08457 -0.25599,0.66034 -1.32905,-0.8214 -15.51372,6.74251 -14.51577,7.74046 0.39619,0.39618 -0.12727,0.39508 -1.16323,-0.002 -1.30195,-0.4996 -1.66248,-0.36507 -1.16758,0.4357 0.48251,0.78071 0.15642,0.94376 -1,0.5 -1.18061,-0.45305 -1.48561,-0.28575 -0.97761,0.53623 0.40611,0.65709 0.33476,1.07106 -0.15855,0.91994 -1.4576,-0.44654 -13.21418,5.47695 -12.65763,6.37748 0.28038,0.45366 -0.26242,0.52851 -1.20621,0.16635 -1.25638,-0.48212 -1.49674,-0.30375 -0.89743,0.66596 0.5229,0.84606 0.43044,1.08457 -0.25599,0.66034 -1.32905,-0.8214 -15.51372,6.74251 -14.51577,7.74046 0.39619,0.39618 -0.12727,0.39508 -1.16323,-0.002 -1.41167,-0.54171 -1.67849,-0.39098 -1.06501,0.60166 0.50248,0.81302 0.42898,1.08367 -0.19035,0.70091 -1.29627,-0.80114 -13.56575,5.71555 -12.59285,6.68844 0.40248,0.40248 -0.11583,0.40653 -1.15179,0.009 -1.41167,-0.54171 -1.67849,-0.39098 -1.06501,0.60166 0.52905,0.85601 0.43091,1.08487 -0.27747,0.64707 -1.34027,-0.82834 -13.5004,5.74762 -12.49238,6.75564 0.39514,0.39513 -0.12918,0.39317 -1.16514,-0.004 -1.30195,-0.4996 -1.66248,-0.36507 -1.16758,0.4357 0.48251,0.78071 0.15642,0.94376 -1,0.5 -1.15641,-0.44376 -1.4825,-0.28072 -1,0.5 0.48251,0.78071 0.15642,0.94376 -1,0.5 -1.25638,-0.48212 -1.49674,-0.30375 -0.89743,0.66596 0.53614,0.86749 0.43149,1.08523 -0.30333,0.63108 -1.35541,-0.83769 -11.48801,4.75013 -10.4663,5.77185 0.39501,0.39501 -0.1294,0.39295 -1.16536,-0.005 -1.30195,-0.4996 -1.66248,-0.36507 -1.16758,0.4357 0.48251,0.78071 0.15642,0.94376 -1,0.5 -1.15641,-0.44376 -1.4825,-0.28072 -1,0.5 0.48251,0.78071 0.15642,0.94376 -1,0.5 -1.25638,-0.48212 -1.49674,-0.30375 -0.89743,0.66596 0.49733,0.80469 0.42864,1.08346 -0.17505,0.71037 -1.29068,-0.79769 -15.57959,6.70754 -14.61213,7.675 0.40467,0.40467 -0.11185,0.41051 -1.14781,0.013 -1.30195,-0.4996 -1.66248,-0.36507 -1.16758,0.4357 0.48251,0.78071 0.15642,0.94376 -1,0.5 -1.25638,-0.48212 -1.49674,-0.30375 -0.89743,0.66596 0.5229,0.84606 0.43044,1.08457 -0.25599,0.66034 -1.32905,-0.8214 -15.51372,6.74251 -14.51577,7.74046 0.39619,0.39618 -0.12727,0.39508 -1.16323,-0.002 -1.41167,-0.54171 -1.67849,-0.39098 -1.06501,0.60166 0.49733,0.80469 0.42864,1.08346 -0.17505,0.71037 -1.29068,-0.79769 -15.57959,6.70754 -14.61213,7.675 0.40467,0.40467 -0.11185,0.41051 -1.14781,0.013 -1.41167,-0.54171 -1.67849,-0.39098 -1.06501,0.60166 0.5229,0.84606 0.43044,1.08457 -0.25599,0.66034 -1.32905,-0.8214 -15.51372,6.74251 -14.51577,7.74046 0.39619,0.39618 -0.12727,0.39508 -1.16323,-0.002 -1.30195,-0.4996 -1.66248,-0.36507 -1.16758,0.4357 0.48251,0.78071 0.15642,0.94376 -1,0.5 -1.18061,-0.45305 -1.48561,-0.28575 -0.97761,0.53623 0.40611,0.65709 0.33476,1.07106 -0.15855,0.91994 -1.4576,-0.44654 -13.21418,5.47695 -12.65763,6.37748 0.28038,0.45366 -0.26242,0.52851 -1.20621,0.16635 -1.15641,-0.44376 -1.4825,-0.28072 -1,0.5 0.48251,0.78071 0.15642,0.94376 -1,0.5 -1.25638,-0.48212 -1.49674,-0.30375 -0.89743,0.66596 0.51297,0.83 0.4297,1.08412 -0.22305,0.6807 -1.3135,-0.81179 -19.53807,8.73074 -18.55386,9.71495 0.39902,0.39902 -0.12212,0.40023 -1.15808,0.003 -1.30195,-0.4996 -1.66248,-0.36507 -1.16758,0.4357 0.48251,0.78071 0.15642,0.94376 -1,0.5 -1.25638,-0.48212 -1.49674,-0.30375 -0.89743,0.66596 0.50248,0.81302 0.42898,1.08367 -0.19035,0.70091 -1.29627,-0.80114 -13.56575,5.71555 -12.59285,6.68844 0.40248,0.40248 -0.11583,0.40653 -1.15179,0.009 -1.3285,-0.50979 -1.66597,-0.37072 -1.14519,0.47193 0.40611,0.65709 0.33476,1.07106 -0.15855,0.91994 -1.4576,-0.44654 -13.21418,5.47695 -12.65763,6.37748 0.28038,0.45366 -0.26242,0.52851 -1.20621,0.16635 -1.15641,-0.44376 -1.4825,-0.28072 -1,0.5 0.48251,0.78071 0.15642,0.94376 -1,0.5 -1.15641,-0.44376 -1.4825,-0.28072 -1,0.5 0.48251,0.78071 0.15642,0.94376 -1,0.5 -1.25638,-0.48212 -1.49674,-0.30375 -0.89743,0.66596 0.52383,0.84757 0.43051,1.08462 -0.25918,0.65837 -0.59276,-0.36635 -2.77232,0.33375 -4.84348,1.55576 -2.07116,1.22202 -3.45425,1.71783 -3.07353,1.10181 z m 157.24864,-233.55051 2.93709,-3.25 -3.25,2.93709 c -3.02946,2.73778 -3.70965,3.56291 -2.93709,3.56291 0.1721,0 1.6346,-1.4625 3.25,-3.25 z"
         id="path5" /><g
         id="g9"
         style="fill:#24221c"><path
           d="m 581.77292,666.20712 c -5.6562,-3.83838 -34.3633,-28.32608 -36.0798,-30.77674 -2.2795,-3.25443 -1.8705,-5.3763 1.8103,-9.3928 2.7188,-2.96673 3.8032,-3.51762 5.8922,-2.99332 2.4938,0.62589 37.0389,28.30943 41.5238,33.27603 2.1232,2.35123 2.1619,2.65607 0.6968,5.48919 -3.7716,7.29359 -7.7252,8.54953 -13.8433,4.39764 z m 10.8562,-38.25389 c -7.0739,-5.9125 -15.1215,-12.82787 -17.8835,-15.36748 l -5.0219,-4.61748 4.3455,-5.63252 c 2.39,-3.09789 5.0953,-5.63252 6.0118,-5.63252 1.5795,0 27.0523,21.28893 31.8404,26.61074 3.2338,3.59426 2.8723,7.31899 -1.1349,11.69384 -1.8617,2.03248 -3.8148,3.69542 -4.3402,3.69542 -0.5255,0 -6.7432,-4.8375 -13.8172,-10.75 z"
           style="fill:#8e5bb9;fill-opacity:1"
           id="path1-6" /></g></g></g></svg>
